<?xml version="1.0" encoding="utf-8" standalone="no"?>
<!DOCTYPE svg PUBLIC "-//W3C//DTD SVG 1.1//EN"
  "http://www.w3.org/Graphics/SVG/1.1/DTD/svg11.dtd">
<svg xmlns:xlink="http://www.w3.org/1999/xlink" width="432pt" height="144pt" viewBox="0 0 432 144" xmlns="http://www.w3.org/2000/svg" version="1.1">
 <metadata>
  <rdf:RDF xmlns:dc="http://purl.org/dc/elements/1.1/" xmlns:cc="http://creativecommons.org/ns#" xmlns:rdf="http://www.w3.org/1999/02/22-rdf-syntax-ns#">
   <cc:Work>
    <dc:type rdf:resource="http://purl.org/dc/dcmitype/StillImage"/>
    <dc:date>2022-11-21T13:45:19.230058</dc:date>
    <dc:format>image/svg+xml</dc:format>
    <dc:creator>
     <cc:Agent>
      <dc:title>Matplotlib v3.5.3, https://matplotlib.org/</dc:title>
     </cc:Agent>
    </dc:creator>
   </cc:Work>
  </rdf:RDF>
 </metadata>
 <defs>
  <style type="text/css">*{stroke-linejoin: round; stroke-linecap: butt}</style>
 </defs>
 <g id="figure_1">
  <g id="patch_1">
   <path d="M 0 144 
L 432 144 
L 432 0 
L 0 0 
L 0 144 
z
" style="fill: none"/>
  </g>
  <g id="axes_1">
   <g id="patch_2">
    <path d="M 54 126 
L 206.181818 126 
L 206.181818 17.28 
L 54 17.28 
z
" style="fill: #ffffff"/>
   </g>
   <g id="patch_3">
    <path d="M 60.917355 126 
L 78.96263 126 
L 78.96263 126 
L 60.917355 126 
z
" clip-path="url(#p97f157db63)" style="fill: #1f77b4"/>
   </g>
   <g id="patch_4">
    <path d="M 84.977722 126 
L 103.022997 126 
L 103.022997 126 
L 84.977722 126 
z
" clip-path="url(#p97f157db63)" style="fill: #1f77b4"/>
   </g>
   <g id="patch_5">
    <path d="M 109.038088 126 
L 127.083363 126 
L 127.083363 125.987253 
L 109.038088 125.987253 
z
" clip-path="url(#p97f157db63)" style="fill: #1f77b4"/>
   </g>
   <g id="patch_6">
    <path d="M 133.098455 126 
L 151.14373 126 
L 151.14373 126 
L 133.098455 126 
z
" clip-path="url(#p97f157db63)" style="fill: #1f77b4"/>
   </g>
   <g id="patch_7">
    <path d="M 157.158821 126 
L 175.204096 126 
L 175.204096 125.979764 
L 157.158821 125.979764 
z
" clip-path="url(#p97f157db63)" style="fill: #1f77b4"/>
   </g>
   <g id="patch_8">
    <path d="M 181.219188 126 
L 199.264463 126 
L 199.264463 126 
L 181.219188 126 
z
" clip-path="url(#p97f157db63)" style="fill: #1f77b4"/>
   </g>
   <g id="patch_9">
    <path d="M 60.917355 126 
L 78.96263 126 
L 78.96263 124.088782 
L 60.917355 124.088782 
z
" clip-path="url(#p97f157db63)" style="fill: #d95319"/>
   </g>
   <g id="patch_10">
    <path d="M 84.977722 126 
L 103.022997 126 
L 103.022997 102.197288 
L 84.977722 102.197288 
z
" clip-path="url(#p97f157db63)" style="fill: #d95319"/>
   </g>
   <g id="patch_11">
    <path d="M 109.038088 125.987253 
L 127.083363 125.987253 
L 127.083363 125.987253 
L 109.038088 125.987253 
z
" clip-path="url(#p97f157db63)" style="fill: #d95319"/>
   </g>
   <g id="patch_12">
    <path d="M 133.098455 126 
L 151.14373 126 
L 151.14373 114.187596 
L 133.098455 114.187596 
z
" clip-path="url(#p97f157db63)" style="fill: #d95319"/>
   </g>
   <g id="patch_13">
    <path d="M 157.158821 125.979764 
L 175.204096 125.979764 
L 175.204096 118.985224 
L 157.158821 118.985224 
z
" clip-path="url(#p97f157db63)" style="fill: #d95319"/>
   </g>
   <g id="patch_14">
    <path d="M 181.219188 126 
L 199.264463 126 
L 199.264463 123.249443 
L 181.219188 123.249443 
z
" clip-path="url(#p97f157db63)" style="fill: #d95319"/>
   </g>
   <g id="patch_15">
    <path d="M 60.917355 124.088782 
L 78.96263 124.088782 
L 78.96263 26.570618 
L 60.917355 26.570618 
z
" clip-path="url(#p97f157db63)" style="fill: #0072bd"/>
   </g>
   <g id="patch_16">
    <path d="M 84.977722 102.197288 
L 103.022997 102.197288 
L 103.022997 23.923535 
L 84.977722 23.923535 
z
" clip-path="url(#p97f157db63)" style="fill: #0072bd"/>
   </g>
   <g id="patch_17">
    <path d="M 109.038088 125.987253 
L 127.083363 125.987253 
L 127.083363 28.07881 
L 109.038088 28.07881 
z
" clip-path="url(#p97f157db63)" style="fill: #0072bd"/>
   </g>
   <g id="patch_18">
    <path d="M 133.098455 114.187596 
L 151.14373 114.187596 
L 151.14373 24.516546 
L 133.098455 24.516546 
z
" clip-path="url(#p97f157db63)" style="fill: #0072bd"/>
   </g>
   <g id="patch_19">
    <path d="M 157.158821 118.985224 
L 175.204096 118.985224 
L 175.204096 25.562874 
L 157.158821 25.562874 
z
" clip-path="url(#p97f157db63)" style="fill: #0072bd"/>
   </g>
   <g id="patch_20">
    <path d="M 181.219188 123.249443 
L 199.264463 123.249443 
L 199.264463 50.314069 
L 181.219188 50.314069 
z
" clip-path="url(#p97f157db63)" style="fill: #0072bd"/>
   </g>
   <g id="patch_21">
    <path d="M 60.917355 26.570618 
L 78.96263 26.570618 
L 78.96263 26.570618 
L 60.917355 26.570618 
z
" clip-path="url(#p97f157db63)" style="fill: #a2142f"/>
   </g>
   <g id="patch_22">
    <path d="M 84.977722 23.923535 
L 103.022997 23.923535 
L 103.022997 23.856832 
L 84.977722 23.856832 
z
" clip-path="url(#p97f157db63)" style="fill: #a2142f"/>
   </g>
   <g id="patch_23">
    <path d="M 109.038088 28.07881 
L 127.083363 28.07881 
L 127.083363 28.022205 
L 109.038088 28.022205 
z
" clip-path="url(#p97f157db63)" style="fill: #a2142f"/>
   </g>
   <g id="patch_24">
    <path d="M 133.098455 24.516546 
L 151.14373 24.516546 
L 151.14373 24.491653 
L 133.098455 24.491653 
z
" clip-path="url(#p97f157db63)" style="fill: #a2142f"/>
   </g>
   <g id="patch_25">
    <path d="M 157.158821 25.562874 
L 175.204096 25.562874 
L 175.204096 25.562874 
L 157.158821 25.562874 
z
" clip-path="url(#p97f157db63)" style="fill: #a2142f"/>
   </g>
   <g id="patch_26">
    <path d="M 181.219188 50.314069 
L 199.264463 50.314069 
L 199.264463 50.26414 
L 181.219188 50.26414 
z
" clip-path="url(#p97f157db63)" style="fill: #a2142f"/>
   </g>
   <g id="patch_27">
    <path d="M 60.917355 26.570618 
L 78.96263 26.570618 
L 78.96263 26.570618 
L 60.917355 26.570618 
z
" clip-path="url(#p97f157db63)" style="fill: #7e2f8e"/>
   </g>
   <g id="patch_28">
    <path d="M 84.977722 23.856832 
L 103.022997 23.856832 
L 103.022997 23.856832 
L 84.977722 23.856832 
z
" clip-path="url(#p97f157db63)" style="fill: #7e2f8e"/>
   </g>
   <g id="patch_29">
    <path d="M 109.038088 28.022205 
L 127.083363 28.022205 
L 127.083363 25.49874 
L 109.038088 25.49874 
z
" clip-path="url(#p97f157db63)" style="fill: #7e2f8e"/>
   </g>
   <g id="patch_30">
    <path d="M 133.098455 24.491653 
L 151.14373 24.491653 
L 151.14373 24.491653 
L 133.098455 24.491653 
z
" clip-path="url(#p97f157db63)" style="fill: #7e2f8e"/>
   </g>
   <g id="patch_31">
    <path d="M 157.158821 25.562874 
L 175.204096 25.562874 
L 175.204096 25.562874 
L 157.158821 25.562874 
z
" clip-path="url(#p97f157db63)" style="fill: #7e2f8e"/>
   </g>
   <g id="patch_32">
    <path d="M 181.219188 50.26414 
L 199.264463 50.26414 
L 199.264463 50.26414 
L 181.219188 50.26414 
z
" clip-path="url(#p97f157db63)" style="fill: #7e2f8e"/>
   </g>
   <g id="patch_33">
    <path d="M 60.917355 26.570618 
L 78.96263 26.570618 
L 78.96263 26.570618 
L 60.917355 26.570618 
z
" clip-path="url(#p97f157db63)" style="fill: #edb120"/>
   </g>
   <g id="patch_34">
    <path d="M 84.977722 23.856832 
L 103.022997 23.856832 
L 103.022997 23.856832 
L 84.977722 23.856832 
z
" clip-path="url(#p97f157db63)" style="fill: #edb120"/>
   </g>
   <g id="patch_35">
    <path d="M 109.038088 25.49874 
L 127.083363 25.49874 
L 127.083363 25.49874 
L 109.038088 25.49874 
z
" clip-path="url(#p97f157db63)" style="fill: #edb120"/>
   </g>
   <g id="patch_36">
    <path d="M 133.098455 24.491653 
L 151.14373 24.491653 
L 151.14373 24.491653 
L 133.098455 24.491653 
z
" clip-path="url(#p97f157db63)" style="fill: #edb120"/>
   </g>
   <g id="patch_37">
    <path d="M 157.158821 25.562874 
L 175.204096 25.562874 
L 175.204096 25.562874 
L 157.158821 25.562874 
z
" clip-path="url(#p97f157db63)" style="fill: #edb120"/>
   </g>
   <g id="patch_38">
    <path d="M 181.219188 50.26414 
L 199.264463 50.26414 
L 199.264463 23.122825 
L 181.219188 23.122825 
z
" clip-path="url(#p97f157db63)" style="fill: #edb120"/>
   </g>
   <g id="matplotlib.axis_1">
    <g id="xtick_1">
     <g id="line2d_1">
      <defs>
       <path id="m1159d018b7" d="M 0 0 
L 0 3.5 
" style="stroke: #000000; stroke-width: 0.8"/>
      </defs>
      <g>
       <use xlink:href="#m1159d018b7" x="69.939993" y="126" style="stroke: #000000; stroke-width: 0.8"/>
      </g>
     </g>
     <g id="text_1">
      <text style="font: 7px 'Arial'" transform="translate(48.873404 156.640458)rotate(-45)">sample 1</text>
     </g>
    </g>
    <g id="xtick_2">
     <g id="line2d_2">
      <g>
       <use xlink:href="#m1159d018b7" x="94.000359" y="126" style="stroke: #000000; stroke-width: 0.8"/>
      </g>
     </g>
     <g id="text_2">
      <text style="font: 7px 'Arial'" transform="translate(72.93377 156.640458)rotate(-45)">sample 2</text>
     </g>
    </g>
    <g id="xtick_3">
     <g id="line2d_3">
      <g>
       <use xlink:href="#m1159d018b7" x="118.060726" y="126" style="stroke: #000000; stroke-width: 0.8"/>
      </g>
     </g>
     <g id="text_3">
      <text style="font: 7px 'Arial'" transform="translate(96.994137 156.640458)rotate(-45)">sample 3</text>
     </g>
    </g>
    <g id="xtick_4">
     <g id="line2d_4">
      <g>
       <use xlink:href="#m1159d018b7" x="142.121092" y="126" style="stroke: #000000; stroke-width: 0.8"/>
      </g>
     </g>
     <g id="text_4">
      <text style="font: 7px 'Arial'" transform="translate(121.054503 156.625763)rotate(-45)">sample 4</text>
     </g>
    </g>
    <g id="xtick_5">
     <g id="line2d_5">
      <g>
       <use xlink:href="#m1159d018b7" x="166.181459" y="126" style="stroke: #000000; stroke-width: 0.8"/>
      </g>
     </g>
     <g id="text_5">
      <text style="font: 7px 'Arial'" transform="translate(145.11487 156.625763)rotate(-45)">sample 5</text>
     </g>
    </g>
    <g id="xtick_6">
     <g id="line2d_6">
      <g>
       <use xlink:href="#m1159d018b7" x="190.241825" y="126" style="stroke: #000000; stroke-width: 0.8"/>
      </g>
     </g>
     <g id="text_6">
      <text style="font: 7px 'Arial'" transform="translate(169.175236 156.640458)rotate(-45)">sample 6</text>
     </g>
    </g>
   </g>
   <g id="matplotlib.axis_2">
    <g id="ytick_1">
     <g id="line2d_7">
      <defs>
       <path id="m4d017e93c3" d="M 0 0 
L -3.5 0 
" style="stroke: #000000; stroke-width: 0.8"/>
      </defs>
      <g>
       <use xlink:href="#m4d017e93c3" x="54" y="126" style="stroke: #000000; stroke-width: 0.8"/>
      </g>
     </g>
     <g id="text_7">
      <text style="font: 10px 'Arial'; text-anchor: end" x="47" y="129.578906" transform="rotate(-0, 47, 129.578906)">0</text>
     </g>
    </g>
    <g id="ytick_2">
     <g id="line2d_8">
      <g>
       <use xlink:href="#m4d017e93c3" x="54" y="104.256" style="stroke: #000000; stroke-width: 0.8"/>
      </g>
     </g>
     <g id="text_8">
      <text style="font: 10px 'Arial'; text-anchor: end" x="47" y="107.834906" transform="rotate(-0, 47, 107.834906)">20</text>
     </g>
    </g>
    <g id="ytick_3">
     <g id="line2d_9">
      <g>
       <use xlink:href="#m4d017e93c3" x="54" y="82.512" style="stroke: #000000; stroke-width: 0.8"/>
      </g>
     </g>
     <g id="text_9">
      <text style="font: 10px 'Arial'; text-anchor: end" x="47" y="86.090906" transform="rotate(-0, 47, 86.090906)">40</text>
     </g>
    </g>
    <g id="ytick_4">
     <g id="line2d_10">
      <g>
       <use xlink:href="#m4d017e93c3" x="54" y="60.768" style="stroke: #000000; stroke-width: 0.8"/>
      </g>
     </g>
     <g id="text_10">
      <text style="font: 10px 'Arial'; text-anchor: end" x="47" y="64.346906" transform="rotate(-0, 47, 64.346906)">60</text>
     </g>
    </g>
    <g id="ytick_5">
     <g id="line2d_11">
      <g>
       <use xlink:href="#m4d017e93c3" x="54" y="39.024" style="stroke: #000000; stroke-width: 0.8"/>
      </g>
     </g>
     <g id="text_11">
      <text style="font: 10px 'Arial'; text-anchor: end" x="47" y="42.602906" transform="rotate(-0, 47, 42.602906)">80</text>
     </g>
    </g>
    <g id="ytick_6">
     <g id="line2d_12">
      <g>
       <use xlink:href="#m4d017e93c3" x="54" y="17.28" style="stroke: #000000; stroke-width: 0.8"/>
      </g>
     </g>
     <g id="text_12">
      <text style="font: 10px 'Arial'; text-anchor: end" x="47" y="20.858906" transform="rotate(-0, 47, 20.858906)">100</text>
     </g>
    </g>
    <g id="text_13">
     <text style="font: 10px 'Arial'; text-anchor: middle" x="28.904687" y="71.64" transform="rotate(-90, 28.904687, 71.64)">relative abundance (%)</text>
    </g>
   </g>
   <g id="patch_39">
    <path d="M 54 126 
L 54 17.28 
" style="fill: none; stroke: #000000; stroke-linejoin: miter; stroke-linecap: square"/>
   </g>
   <g id="patch_40">
    <path d="M 206.181818 126 
L 206.181818 17.28 
" style="fill: none; stroke: #000000; stroke-linejoin: miter; stroke-linecap: square"/>
   </g>
   <g id="patch_41">
    <path d="M 54 126 
L 206.181818 126 
" style="fill: none; stroke: #000000; stroke-linejoin: miter; stroke-linecap: square"/>
   </g>
   <g id="patch_42">
    <path d="M 54 17.28 
L 206.181818 17.28 
" style="fill: none; stroke: #000000; stroke-linejoin: miter; stroke-linecap: square"/>
   </g>
  </g>
  <g id="axes_2">
   <g id="patch_43">
    <path d="M 236.618182 126 
L 388.8 126 
L 388.8 17.28 
L 236.618182 17.28 
z
" style="fill: #ffffff"/>
   </g>
   <g id="patch_44">
    <path d="M 243.535537 126 
L 261.580812 126 
L 261.580812 126 
L 243.535537 126 
z
" clip-path="url(#p65f35952fa)" style="fill: #1f77b4"/>
   </g>
   <g id="patch_45">
    <path d="M 267.595904 126 
L 285.641179 126 
L 285.641179 125.616087 
L 267.595904 125.616087 
z
" clip-path="url(#p65f35952fa)" style="fill: #1f77b4"/>
   </g>
   <g id="patch_46">
    <path d="M 291.65627 126 
L 309.701545 126 
L 309.701545 125.503175 
L 291.65627 125.503175 
z
" clip-path="url(#p65f35952fa)" style="fill: #1f77b4"/>
   </g>
   <g id="patch_47">
    <path d="M 315.716637 126 
L 333.761912 126 
L 333.761912 126 
L 315.716637 126 
z
" clip-path="url(#p65f35952fa)" style="fill: #1f77b4"/>
   </g>
   <g id="patch_48">
    <path d="M 339.777003 126 
L 357.822278 126 
L 357.822278 125.491139 
L 339.777003 125.491139 
z
" clip-path="url(#p65f35952fa)" style="fill: #1f77b4"/>
   </g>
   <g id="patch_49">
    <path d="M 363.83737 126 
L 381.882645 126 
L 381.882645 126 
L 363.83737 126 
z
" clip-path="url(#p65f35952fa)" style="fill: #1f77b4"/>
   </g>
   <g id="patch_50">
    <path d="M 243.535537 126 
L 261.580812 126 
L 261.580812 21.233092 
L 243.535537 21.233092 
z
" clip-path="url(#p65f35952fa)" style="fill: #d95319"/>
   </g>
   <g id="patch_51">
    <path d="M 267.595904 125.616087 
L 285.641179 125.616087 
L 285.641179 51.495337 
L 267.595904 51.495337 
z
" clip-path="url(#p65f35952fa)" style="fill: #d95319"/>
   </g>
   <g id="patch_52">
    <path d="M 291.65627 125.503175 
L 309.701545 125.503175 
L 309.701545 96.497933 
L 291.65627 96.497933 
z
" clip-path="url(#p65f35952fa)" style="fill: #d95319"/>
   </g>
   <g id="patch_53">
    <path d="M 315.716637 126 
L 333.761912 126 
L 333.761912 26.204662 
L 315.716637 26.204662 
z
" clip-path="url(#p65f35952fa)" style="fill: #d95319"/>
   </g>
   <g id="patch_54">
    <path d="M 339.777003 125.491139 
L 357.822278 125.491139 
L 357.822278 48.148529 
L 339.777003 48.148529 
z
" clip-path="url(#p65f35952fa)" style="fill: #d95319"/>
   </g>
   <g id="patch_55">
    <path d="M 363.83737 126 
L 381.882645 126 
L 381.882645 28.104407 
L 363.83737 28.104407 
z
" clip-path="url(#p65f35952fa)" style="fill: #d95319"/>
   </g>
   <g id="patch_56">
    <path d="M 243.535537 21.233092 
L 261.580812 21.233092 
L 261.580812 17.703629 
L 243.535537 17.703629 
z
" clip-path="url(#p65f35952fa)" style="fill: #0072bd"/>
   </g>
   <g id="patch_57">
    <path d="M 267.595904 51.495337 
L 285.641179 51.495337 
L 285.641179 51.495337 
L 267.595904 51.495337 
z
" clip-path="url(#p65f35952fa)" style="fill: #0072bd"/>
   </g>
   <g id="patch_58">
    <path d="M 291.65627 96.497933 
L 309.701545 96.497933 
L 309.701545 22.498839 
L 291.65627 22.498839 
z
" clip-path="url(#p65f35952fa)" style="fill: #0072bd"/>
   </g>
   <g id="patch_59">
    <path d="M 315.716637 26.204662 
L 333.761912 26.204662 
L 333.761912 18.133836 
L 315.716637 18.133836 
z
" clip-path="url(#p65f35952fa)" style="fill: #0072bd"/>
   </g>
   <g id="patch_60">
    <path d="M 339.777003 48.148529 
L 357.822278 48.148529 
L 357.822278 48.148529 
L 339.777003 48.148529 
z
" clip-path="url(#p65f35952fa)" style="fill: #0072bd"/>
   </g>
   <g id="patch_61">
    <path d="M 363.83737 28.104407 
L 381.882645 28.104407 
L 381.882645 18.298856 
L 363.83737 18.298856 
z
" clip-path="url(#p65f35952fa)" style="fill: #0072bd"/>
   </g>
   <g id="patch_62">
    <path d="M 243.535537 17.703629 
L 261.580812 17.703629 
L 261.580812 17.703629 
L 243.535537 17.703629 
z
" clip-path="url(#p65f35952fa)" style="fill: #a2142f"/>
   </g>
   <g id="patch_63">
    <path d="M 267.595904 51.495337 
L 285.641179 51.495337 
L 285.641179 51.463842 
L 267.595904 51.463842 
z
" clip-path="url(#p65f35952fa)" style="fill: #a2142f"/>
   </g>
   <g id="patch_64">
    <path d="M 291.65627 22.498839 
L 309.701545 22.498839 
L 309.701545 22.439686 
L 291.65627 22.439686 
z
" clip-path="url(#p65f35952fa)" style="fill: #a2142f"/>
   </g>
   <g id="patch_65">
    <path d="M 315.716637 18.133836 
L 333.761912 18.133836 
L 333.761912 18.040786 
L 315.716637 18.040786 
z
" clip-path="url(#p65f35952fa)" style="fill: #a2142f"/>
   </g>
   <g id="patch_66">
    <path d="M 339.777003 48.148529 
L 357.822278 48.148529 
L 357.822278 48.08915 
L 339.777003 48.08915 
z
" clip-path="url(#p65f35952fa)" style="fill: #a2142f"/>
   </g>
   <g id="patch_67">
    <path d="M 363.83737 18.298856 
L 381.882645 18.298856 
L 381.882645 18.298856 
L 363.83737 18.298856 
z
" clip-path="url(#p65f35952fa)" style="fill: #a2142f"/>
   </g>
   <g id="patch_68">
    <path d="M 243.535537 17.703629 
L 261.580812 17.703629 
L 261.580812 17.703629 
L 243.535537 17.703629 
z
" clip-path="url(#p65f35952fa)" style="fill: #7e2f8e"/>
   </g>
   <g id="patch_69">
    <path d="M 267.595904 51.463842 
L 285.641179 51.463842 
L 285.641179 51.463842 
L 267.595904 51.463842 
z
" clip-path="url(#p65f35952fa)" style="fill: #7e2f8e"/>
   </g>
   <g id="patch_70">
    <path d="M 291.65627 22.439686 
L 309.701545 22.439686 
L 309.701545 22.439686 
L 291.65627 22.439686 
z
" clip-path="url(#p65f35952fa)" style="fill: #7e2f8e"/>
   </g>
   <g id="patch_71">
    <path d="M 315.716637 18.040786 
L 333.761912 18.040786 
L 333.761912 18.040786 
L 315.716637 18.040786 
z
" clip-path="url(#p65f35952fa)" style="fill: #7e2f8e"/>
   </g>
   <g id="patch_72">
    <path d="M 339.777003 48.08915 
L 357.822278 48.08915 
L 357.822278 48.08915 
L 339.777003 48.08915 
z
" clip-path="url(#p65f35952fa)" style="fill: #7e2f8e"/>
   </g>
   <g id="patch_73">
    <path d="M 363.83737 18.298856 
L 381.882645 18.298856 
L 381.882645 18.298856 
L 363.83737 18.298856 
z
" clip-path="url(#p65f35952fa)" style="fill: #7e2f8e"/>
   </g>
   <g id="patch_74">
    <path d="M 243.535537 17.703629 
L 261.580812 17.703629 
L 261.580812 17.703629 
L 243.535537 17.703629 
z
" clip-path="url(#p65f35952fa)" style="fill: #edb120"/>
   </g>
   <g id="patch_75">
    <path d="M 267.595904 51.463842 
L 285.641179 51.463842 
L 285.641179 17.372727 
L 267.595904 17.372727 
z
" clip-path="url(#p65f35952fa)" style="fill: #edb120"/>
   </g>
   <g id="patch_76">
    <path d="M 291.65627 22.439686 
L 309.701545 22.439686 
L 309.701545 22.439686 
L 291.65627 22.439686 
z
" clip-path="url(#p65f35952fa)" style="fill: #edb120"/>
   </g>
   <g id="patch_77">
    <path d="M 315.716637 18.040786 
L 333.761912 18.040786 
L 333.761912 18.040786 
L 315.716637 18.040786 
z
" clip-path="url(#p65f35952fa)" style="fill: #edb120"/>
   </g>
   <g id="patch_78">
    <path d="M 339.777003 48.08915 
L 357.822278 48.08915 
L 357.822278 17.57074 
L 339.777003 17.57074 
z
" clip-path="url(#p65f35952fa)" style="fill: #edb120"/>
   </g>
   <g id="patch_79">
    <path d="M 363.83737 18.298856 
L 381.882645 18.298856 
L 381.882645 18.298856 
L 363.83737 18.298856 
z
" clip-path="url(#p65f35952fa)" style="fill: #edb120"/>
   </g>
   <g id="matplotlib.axis_3">
    <g id="xtick_7">
     <g id="line2d_13">
      <g>
       <use xlink:href="#m1159d018b7" x="252.558175" y="126" style="stroke: #000000; stroke-width: 0.8"/>
      </g>
     </g>
     <g id="text_14">
      <text style="font: 7px 'Arial'" transform="translate(231.491585 156.640458)rotate(-45)">sample 1</text>
     </g>
    </g>
    <g id="xtick_8">
     <g id="line2d_14">
      <g>
       <use xlink:href="#m1159d018b7" x="276.618541" y="126" style="stroke: #000000; stroke-width: 0.8"/>
      </g>
     </g>
     <g id="text_15">
      <text style="font: 7px 'Arial'" transform="translate(255.551952 156.640458)rotate(-45)">sample 2</text>
     </g>
    </g>
    <g id="xtick_9">
     <g id="line2d_15">
      <g>
       <use xlink:href="#m1159d018b7" x="300.678908" y="126" style="stroke: #000000; stroke-width: 0.8"/>
      </g>
     </g>
     <g id="text_16">
      <text style="font: 7px 'Arial'" transform="translate(279.612318 156.640458)rotate(-45)">sample 3</text>
     </g>
    </g>
    <g id="xtick_10">
     <g id="line2d_16">
      <g>
       <use xlink:href="#m1159d018b7" x="324.739274" y="126" style="stroke: #000000; stroke-width: 0.8"/>
      </g>
     </g>
     <g id="text_17">
      <text style="font: 7px 'Arial'" transform="translate(303.672685 156.625763)rotate(-45)">sample 4</text>
     </g>
    </g>
    <g id="xtick_11">
     <g id="line2d_17">
      <g>
       <use xlink:href="#m1159d018b7" x="348.799641" y="126" style="stroke: #000000; stroke-width: 0.8"/>
      </g>
     </g>
     <g id="text_18">
      <text style="font: 7px 'Arial'" transform="translate(327.733051 156.625763)rotate(-45)">sample 5</text>
     </g>
    </g>
    <g id="xtick_12">
     <g id="line2d_18">
      <g>
       <use xlink:href="#m1159d018b7" x="372.860007" y="126" style="stroke: #000000; stroke-width: 0.8"/>
      </g>
     </g>
     <g id="text_19">
      <text style="font: 7px 'Arial'" transform="translate(351.793418 156.640458)rotate(-45)">sample 6</text>
     </g>
    </g>
   </g>
   <g id="matplotlib.axis_4">
    <g id="ytick_7">
     <g id="line2d_19">
      <g>
       <use xlink:href="#m4d017e93c3" x="236.618182" y="126" style="stroke: #000000; stroke-width: 0.8"/>
      </g>
     </g>
     <g id="text_20">
      <text style="font: 10px 'Arial'; text-anchor: end" x="229.618182" y="129.578906" transform="rotate(-0, 229.618182, 129.578906)">0</text>
     </g>
    </g>
    <g id="ytick_8">
     <g id="line2d_20">
      <g>
       <use xlink:href="#m4d017e93c3" x="236.618182" y="104.256" style="stroke: #000000; stroke-width: 0.8"/>
      </g>
     </g>
     <g id="text_21">
      <text style="font: 10px 'Arial'; text-anchor: end" x="229.618182" y="107.834906" transform="rotate(-0, 229.618182, 107.834906)">20</text>
     </g>
    </g>
    <g id="ytick_9">
     <g id="line2d_21">
      <g>
       <use xlink:href="#m4d017e93c3" x="236.618182" y="82.512" style="stroke: #000000; stroke-width: 0.8"/>
      </g>
     </g>
     <g id="text_22">
      <text style="font: 10px 'Arial'; text-anchor: end" x="229.618182" y="86.090906" transform="rotate(-0, 229.618182, 86.090906)">40</text>
     </g>
    </g>
    <g id="ytick_10">
     <g id="line2d_22">
      <g>
       <use xlink:href="#m4d017e93c3" x="236.618182" y="60.768" style="stroke: #000000; stroke-width: 0.8"/>
      </g>
     </g>
     <g id="text_23">
      <text style="font: 10px 'Arial'; text-anchor: end" x="229.618182" y="64.346906" transform="rotate(-0, 229.618182, 64.346906)">60</text>
     </g>
    </g>
    <g id="ytick_11">
     <g id="line2d_23">
      <g>
       <use xlink:href="#m4d017e93c3" x="236.618182" y="39.024" style="stroke: #000000; stroke-width: 0.8"/>
      </g>
     </g>
     <g id="text_24">
      <text style="font: 10px 'Arial'; text-anchor: end" x="229.618182" y="42.602906" transform="rotate(-0, 229.618182, 42.602906)">80</text>
     </g>
    </g>
    <g id="ytick_12">
     <g id="line2d_24">
      <g>
       <use xlink:href="#m4d017e93c3" x="236.618182" y="17.28" style="stroke: #000000; stroke-width: 0.8"/>
      </g>
     </g>
     <g id="text_25">
      <text style="font: 10px 'Arial'; text-anchor: end" x="229.618182" y="20.858906" transform="rotate(-0, 229.618182, 20.858906)">100</text>
     </g>
    </g>
   </g>
   <g id="patch_80">
    <path d="M 236.618182 126 
L 236.618182 17.28 
" style="fill: none; stroke: #000000; stroke-linejoin: miter; stroke-linecap: square"/>
   </g>
   <g id="patch_81">
    <path d="M 388.8 126 
L 388.8 17.28 
" style="fill: none; stroke: #000000; stroke-linejoin: miter; stroke-linecap: square"/>
   </g>
   <g id="patch_82">
    <path d="M 236.618182 126 
L 388.8 126 
" style="fill: none; stroke: #000000; stroke-linejoin: miter; stroke-linecap: square"/>
   </g>
   <g id="patch_83">
    <path d="M 236.618182 17.28 
L 388.8 17.28 
" style="fill: none; stroke: #000000; stroke-linejoin: miter; stroke-linecap: square"/>
   </g>
  </g>
 </g>
 <defs>
  <clipPath id="p97f157db63">
   <rect x="54" y="17.28" width="152.181818" height="108.72"/>
  </clipPath>
  <clipPath id="p65f35952fa">
   <rect x="236.618182" y="17.28" width="152.181818" height="108.72"/>
  </clipPath>
 </defs>
</svg>
